<?xml version="1.0" encoding="utf-8"?>
<!-- Generator: Adobe Illustrator 24.0.2, SVG Export Plug-In . SVG Version: 6.00 Build 0)  -->
<svg version="1.0" id="Capa_1" xmlns="http://www.w3.org/2000/svg" xmlns:xlink="http://www.w3.org/1999/xlink" x="0px" y="0px"
	 viewBox="0 0 512 512" style="enable-background:new 0 0 512 512;" xml:space="preserve">
<style type="text/css">
	.st0{fill:#A0C8FF;}
	.st1{fill:#EAF0F0;}
	.st2{fill:#FF7A7A;}
	.st3{fill:#1C4883;}
</style>
<path class="st0" d="M265.33,86.54H75.47c-7.46,0-13.5-6.04-13.5-13.49V23.49c0-7.45,6.04-13.49,13.5-13.49h189.86
	c7.45,0,13.5,6.04,13.5,13.49v49.57C278.83,80.5,272.79,86.54,265.33,86.54z"/>
<path class="st1" d="M282.34,390.09c-5.99,5.98-8.99,13.83-8.99,21.67c0,7.84,3,15.69,8.99,21.67l31.45,31.42
	c-0.66,6.38-2.78,12.33-6.01,17.52c-2.23,3.61-5.04,6.86-8.25,9.63c-7.95,6.83-17.92,9.99-28.29,9.99c-4.05,0-199.66,0.01-202.72,0
	c-14.34-0.05-27.91-7.39-35.5-19.62c-3.95-6.35-6.24-13.84-6.24-21.86v-13.18c0-5.57,4.52-10.08,10.09-10.08V222.62
	c-3.92,0-7.31-2.24-8.98-5.51c-0.71-1.37-1.11-2.93-1.11-4.58v-11.79c0-10.03,3.64-19.73,10.25-27.29L72.43,133
	c6.61-7.55,10.26-17.26,10.26-27.3V86.55h175.42v19.14c0,10.04,3.65,19.74,10.26,27.3l35.4,40.47c6.61,7.55,10.25,17.26,10.25,27.29
	v11.79c0,1.65-0.4,3.21-1.11,4.58c-1.67,3.27-5.06,5.51-8.98,5.51v158.49C296.11,381.14,288.3,384.13,282.34,390.09z"/>
<path class="st0" d="M282.34,390.09c-5.99,5.98-8.99,13.83-8.99,21.67c0,7.84,3,15.69,8.99,21.67l3.82,3.82H36.87V388.3
	l-0.01-165.66h267.07v158.48C296.11,381.14,288.3,384.13,282.34,390.09L282.34,390.09z"/>
<path class="st2" d="M485.22,450.81c0,28.28-22.93,51.19-51.22,51.19c-16.93,0-31.95-8.21-41.27-20.86
	c3.6-10.68,1.14-22.94-7.38-31.45l-2.45-2.45c1.83-26.6,24.01-47.6,51.1-47.6C462.29,399.63,485.22,422.54,485.22,450.81
	L485.22,450.81z"/>
<path class="st1" d="M355.53,419.88l-29.82-29.8c-11.98-11.97-31.4-11.97-43.38,0l0,0c-11.98,11.97-11.98,31.37,0,43.34l29.82,29.8
	L355.53,419.88z"/>
<path class="st0" d="M385.35,493.02L385.35,493.02c11.98-11.97,11.98-31.37,0-43.34l-29.82-29.8l-43.38,43.34l29.82,29.8
	C353.95,504.99,373.37,504.99,385.35,493.02z"/>
<g>
	<path class="st2" d="M217.34,352.09c-12.07-12.19-28.51-19.05-45.67-19.05h-0.3h-0.51c-17.04,0-33.38,6.76-45.42,18.8l-12.59,12.43
		c-3.65,3.61-5.71,8.52-5.71,13.65v0.35c0,10.6,8.6,19.19,19.21,19.19h45.03h45.03c10.61,0,19.21-8.59,19.21-19.19
		c0-5.09-2.03-9.98-5.63-13.58L217.34,352.09z"/>
	<path class="st2" d="M171.72,296.01c-10.64,0-19.27-8.62-19.27-19.25s8.63-19.25,19.27-19.25s19.27,8.62,19.27,19.25
		C190.99,287.39,182.36,296.01,171.72,296.01z"/>
	<path class="st2" d="M247.02,314.68c-10.64,0-19.27-8.62-19.27-19.25s8.63-19.25,19.27-19.25c10.64,0,19.27,8.62,19.27,19.25
		S257.66,314.68,247.02,314.68z"/>
	<path class="st2" d="M96.42,314.58c-10.64,0-19.27-8.62-19.27-19.25s8.63-19.25,19.27-19.25s19.27,8.62,19.27,19.25
		S107.06,314.58,96.42,314.58z"/>
</g>
<path class="st3" d="M434.05,389.63c-0.02,0-0.04,0-0.05,0c-0.02,0-0.04,0-0.06,0c-25.31,0.03-47.35,15.65-56.56,37.94l-44.6-44.56
	c-5.39-5.39-11.94-8.94-18.85-10.66V229.97c3.3-1.89,6.05-4.73,7.86-8.25c1.46-2.82,2.23-5.99,2.23-9.18v-11.79
	c0-12.47-4.52-24.5-12.72-33.87l-35.4-40.47c-5.02-5.74-7.79-13.09-7.79-20.71v-9.32c11.65-1.38,20.72-11.31,20.72-23.32V23.49
	c0-12.95-10.54-23.49-23.5-23.49H75.47c-12.96,0-23.5,10.54-23.5,23.49v49.57c0,12.01,9.07,21.94,20.72,23.32v9.32
	c0,7.62-2.76,14.97-7.79,20.71l-35.4,40.47c-8.21,9.38-12.73,21.41-12.73,33.87v11.79c0,3.19,0.77,6.36,2.21,9.13
	c1.82,3.55,4.57,6.4,7.87,8.29l0.01,199.95c-6.02,3.47-10.09,9.98-10.09,17.41v13.18c0,9.62,2.68,19,7.74,27.14
	C33.8,502.6,50.65,511.93,68.49,512c0.93,0,18.6,0,52.79,0c32.36,0,149.96,0,149.96,0c13.32,0,25.35-4.29,34.82-12.42
	c4.04-3.48,7.48-7.5,10.21-11.92c0.8-1.29,1.53-2.62,2.21-3.98l16.43,16.41c7.93,7.92,18.34,11.88,28.76,11.88
	c10.41,0,20.83-3.96,28.76-11.88l0,0c0.78-0.78,1.52-1.6,2.23-2.43c10.92,9.13,24.87,14.34,39.34,14.34H434h0h0
	c33.76,0,61.22-27.45,61.22-61.19C495.22,417.09,467.79,389.66,434.05,389.63L434.05,389.63z M341.39,419.88l-29.23,29.21
	l-22.75-22.73c-3.9-3.9-6.05-9.08-6.05-14.6c0-2.64,0.51-5.2,1.45-7.58c3.09-7.8,10.84-13.06,19.23-13.06
	c5.29,0,10.59,2.01,14.62,6.04L341.39,419.88z M266.4,427.25H46.87V232.63h247.06v139.74c-7.02,1.78-13.55,5.53-18.66,10.64
	c-4.38,4.38-7.63,9.58-9.63,15.25c-1.5,4.28-2.29,8.83-2.29,13.5C263.35,417.05,264.38,422.36,266.4,427.25L266.4,427.25z
	 M36.78,200.75c0-7.62,2.76-14.97,7.78-20.7l35.4-40.47c8.21-9.38,12.73-21.42,12.73-33.88V86.55c0,0,0,0,0,0s0,0,0,0
	c0-5.52-4.48-10-10-10h-7.22c-1.93,0-3.5-1.56-3.5-3.49V23.49c0-1.92,1.57-3.49,3.5-3.49h189.86c1.93,0,3.5,1.57,3.5,3.49v49.57
	c0,1.92-1.57,3.49-3.5,3.49h-94.42c-5.52,0-10,4.48-10,10v0c0,0,0,0,0,0c0,5.52,4.48,10,10,10h77.19v9.15
	c0,12.46,4.52,24.5,12.73,33.88l35.4,40.47c5.01,5.73,7.77,13.08,7.77,20.7l0.01,11.76c-0.01,0.02-0.09,0.09-0.1,0.11
	c-0.07,0-0.13,0.01-0.19,0.01H37.06c-0.07,0-0.14-0.01-0.21-0.01l-0.01,0.01c-0.03,0-0.07,0.01-0.1,0.01l0.04-0.1L36.78,200.75z
	 M299.27,477.11c-1.67,2.71-3.79,5.17-6.26,7.3c-5.78,4.96-13.31,7.58-21.78,7.58c0,0-201.46,0-202.68,0
	c-11-0.04-21.36-5.75-27.05-14.91c-3.09-4.97-4.73-10.7-4.73-16.58l0-13.2c0,0,0.02-0.06,0.09-0.06h245.15l21.04,21.02
	C302.27,471.37,301.01,474.33,299.27,477.11z M349.04,485.95l-22.74-22.72l29.23-29.21l20.29,20.27c3.6,3.6,6.76,7.2,7.97,12.31
	c1.62,6.9-0.49,14.33-5.5,19.34C370.22,494,357.1,494,349.04,485.95L349.04,485.95z M403.67,478.7
	c2.34-12.55-1.55-25.77-10.27-35.08c2.83-16.06,15.04-28.84,30.6-32.75v79.87C416.24,488.79,409.14,484.62,403.67,478.7z
	 M444,490.76v-79.9c17.91,4.48,31.22,20.68,31.22,39.95C475.22,470.07,461.91,486.29,444,490.76z"/>
<path class="st3" d="M224.43,345.03c-13.85-13.98-33.07-21.99-52.76-21.99h-0.81c-19.83,0-38.47,7.72-52.45,21.68l-12.59,12.43
	c-5.52,5.45-8.68,13.02-8.68,20.77v0.35c0,16.1,13.1,29.19,29.21,29.19h90.06c16.1,0,29.21-13.1,29.21-29.19
	c0-7.8-3.04-15.14-8.57-20.66L224.43,345.03z M216.4,387.46h-90.06c-5.08,0-9.21-4.12-9.21-9.19v-0.35c0-2.44,1-4.82,2.73-6.54
	l12.64-12.47c10.24-10.24,23.87-15.87,38.35-15.87h0.81c14.39,0,28.45,5.86,38.57,16.08l0.04,0.04l12.63,12.6
	c1.74,1.74,2.7,4.05,2.7,6.5C225.6,383.34,221.47,387.46,216.4,387.46L216.4,387.46z"/>
<path class="st3" d="M171.72,306.01c16.14,0,29.27-13.12,29.27-29.25s-13.13-29.25-29.27-29.25s-29.27,13.12-29.27,29.25
	S155.58,306.01,171.72,306.01z M171.72,267.5c5.11,0,9.27,4.15,9.27,9.25c0,5.1-4.16,9.25-9.27,9.25s-9.27-4.15-9.27-9.25
	S166.61,267.5,171.72,267.5z"/>
<path class="st3" d="M276.29,295.43c0-16.13-13.13-29.25-29.27-29.25s-29.27,13.12-29.27,29.25s13.13,29.25,29.27,29.25
	S276.29,311.56,276.29,295.43z M247.02,304.68c-5.11,0-9.27-4.15-9.27-9.25s4.16-9.25,9.27-9.25s9.27,4.15,9.27,9.25
	S252.13,304.68,247.02,304.68z"/>
<path class="st3" d="M125.69,295.33c0-16.13-13.13-29.25-29.27-29.25s-29.27,13.12-29.27,29.25s13.13,29.25,29.27,29.25
	S125.69,311.46,125.69,295.33z M96.42,304.58c-5.11,0-9.27-4.15-9.27-9.25c0-5.1,4.16-9.25,9.27-9.25s9.27,4.15,9.27,9.25
	S101.53,304.58,96.42,304.58z"/>
<path class="st3" d="M121.36,94.64c3.73,2.44,8.69,2.17,12.08-0.75c2.99-2.58,4.2-6.81,3.01-10.58c-1.28-4.03-5.06-6.88-9.29-6.98
	c-4.25-0.11-8.19,2.59-9.64,6.57C115.94,87.21,117.6,92.06,121.36,94.64L121.36,94.64z"/>
</svg>
