<?xml version="1.0" encoding="utf-8"?>
<!-- Generator: Adobe Illustrator 24.0.2, SVG Export Plug-In . SVG Version: 6.00 Build 0)  -->
<svg version="1.0" id="Слой_1" xmlns="http://www.w3.org/2000/svg" xmlns:xlink="http://www.w3.org/1999/xlink" x="0px" y="0px"
	 viewBox="0 0 511 511" style="enable-background:new 0 0 511 511;" xml:space="preserve">
<style type="text/css">
	.st0{fill:#FFECD1;}
	.st1{fill:#EB8D7B;}
	.st2{fill:#E199BD;}
	.st3{fill:#C58965;}
	.st4{fill:#314980;}
</style>
<g>
	<path class="st0" d="M84,340.2l87.76,87.77c-14.28,17.92-13.13,44.09,3.46,60.68c17.82,17.82,46.73,17.82,64.55,0
		c7.47-7.47,11.8-16.87,13.01-26.6c9.73-1.22,19.13-5.55,26.6-13.02c17.83-17.83,17.83-46.73,0-64.55
		c-16.59-16.59-42.76-17.74-60.68-3.46l-87.77-87.76c14.28-17.92,13.13-44.09-3.46-60.68c-17.83-17.83-46.73-17.83-64.56,0
		c-7.47,7.47-11.8,16.87-13.01,26.6c-9.72,1.21-19.13,5.55-26.6,13.02c-17.82,17.82-17.82,46.73,0,64.55
		C39.91,353.32,66.08,354.48,84,340.2z"/>
	<path class="st1" d="M179.75,179.92c2.68,21.47,15.29,40.82,34.2,51.88c4.54,2.76,10.41,3.02,15.33,0.17
		c21.57-12.48,35.02-35.7,35.03-60.63c0-4.18-0.38-8.31-1.11-12.35c20.61-3.65,40.02-13.47,55.23-28.69
		c26.09-26.09,36.32-64.48,26.8-100.12c-2.17-8.13-8.58-14-16.22-15.87c-35.51-9.3-73.68,0.96-99.65,26.92
		c-15.22,15.22-25.04,34.63-28.69,55.24c-4.04-0.73-8.17-1.11-12.35-1.11c-24.92,0-48.15,13.46-60.63,35.03
		c-2.85,4.92-2.59,10.79,0.16,15.33C138.92,164.63,158.28,177.24,179.75,179.92z"/>
	<path class="st2" d="M308.55,239.82c-24.08,24.08-24.08,63.12,0,87.21l73.25,73.25c7.67,7.68,20.23,7.68,27.9,0l73.25-73.25
		c24.08-24.08,24.08-63.12,0-87.21c-24.08-24.08-63.12-24.08-87.2,0C371.68,215.74,332.64,215.74,308.55,239.82z"/>
	<path class="st3" d="M103.61,77.15c0,11.03-8.94,19.96-19.96,19.96s-19.96-8.94-19.96-19.96s8.94-19.96,19.96-19.96
		S103.61,66.13,103.61,77.15z"/>
	<path class="st3" d="M451.44,130.56c0,11.03-8.94,19.96-19.96,19.96s-19.96-8.94-19.96-19.96s8.94-19.96,19.96-19.96
		S451.44,119.53,451.44,130.56z"/>
	<path class="st3" d="M469.41,451.45c0,11.03-8.94,19.96-19.96,19.96c-11.03,0-19.96-8.94-19.96-19.96
		c0-11.03,8.94-19.96,19.96-19.96C460.47,431.49,469.41,440.42,469.41,451.45z"/>
</g>
<path class="st4" d="M219.99,368.17l-9.86-9.87c-3.9-3.89-10.22-3.89-14.12,0c-3.89,3.89-3.89,10.21,0,14.11l15.66,15.65
	c3.59,3.59,9.3,3.91,13.27,0.75c14.18-11.29,34.56-10.13,47.4,2.71c13.91,13.91,13.91,36.53,0,50.44
	c-5.66,5.66-12.85,9.18-20.78,10.17c-4.53,0.57-8.11,4.14-8.67,8.67c-0.99,7.93-4.5,15.11-10.17,20.77
	c-13.91,13.91-36.53,13.91-50.44,0c-12.85-12.84-14.01-33.22-2.71-47.4c3.17-3.97,2.84-9.69-0.75-13.28l-87.76-87.76
	c-3.59-3.59-9.31-3.91-13.28-0.75c-14.18,11.3-34.56,10.13-47.4-2.71c-6.74-6.74-10.45-15.69-10.45-25.22s3.71-18.48,10.45-25.22
	c5.66-5.66,12.85-9.18,20.78-10.17c4.53-0.57,8.11-4.14,8.67-8.67c0.99-7.93,4.51-15.11,10.17-20.78
	c13.91-13.91,36.53-13.91,50.44,0c12.84,12.85,14.01,33.22,2.71,47.4c-3.16,3.97-2.84,9.68,0.75,13.27l15.65,15.65
	c3.9,3.9,10.22,3.9,14.12,0c3.9-3.89,3.9-10.21,0-14.11l-9.86-9.86c11.99-21.38,8.62-48.6-9.25-66.47
	c-21.69-21.69-56.98-21.69-78.67,0c-7.06,7.06-11.99,15.65-14.47,25.14c-9.49,2.48-18.08,7.4-25.14,14.47
	c-21.69,21.69-21.69,56.98,0,78.67c17.86,17.87,45.08,21.24,66.46,9.25l76.19,76.19c-11.99,21.38-8.62,48.6,9.25,66.47
	c10.84,10.84,25.09,16.27,39.33,16.27c14.25,0,28.49-5.42,39.34-16.27c7.07-7.07,11.99-15.66,14.47-25.15
	c9.49-2.48,18.08-7.4,25.15-14.47c21.69-21.69,21.69-56.98,0-78.67C268.59,359.55,241.37,356.18,219.99,368.17z"/>
<path class="st4" d="M490.02,232.76c-25.68-25.68-66.18-27.75-94.25-6.2c-12.45-9.59-27.63-14.78-43.61-14.78
	c-19.14,0-37.13,7.45-50.66,20.98c-13.53,13.53-20.99,31.52-20.99,50.66c0,19.13,7.45,37.13,20.99,50.66l73.25,73.25
	c5.79,5.79,13.4,8.69,21.01,8.69c7.61,0,15.22-2.9,21.01-8.69l8.4-8.4c3.9-3.9,3.9-10.22,0-14.12c-3.9-3.89-10.22-3.89-14.11,0
	l-8.4,8.4c-3.81,3.81-9.99,3.81-13.79,0l-73.25-73.25c-9.76-9.76-15.14-22.74-15.14-36.54s5.38-26.78,15.14-36.54
	c9.76-9.76,22.74-15.14,36.54-15.14c13.81,0,26.78,5.38,36.55,15.14c3.89,3.89,10.22,3.89,14.11,0c20.15-20.15,52.94-20.15,73.09,0
	c9.76,9.76,15.13,22.74,15.13,36.54s-5.38,26.78-15.13,36.54l-8.39,8.39c-3.9,3.9-3.9,10.22,0,14.11c3.9,3.9,10.22,3.9,14.12,0
	l8.39-8.39c13.53-13.53,20.98-31.52,20.98-50.66C511,264.28,503.55,246.3,490.02,232.76z"/>
<path class="st4" d="M171.12,188.54c4.81,21.57,18.53,40.59,37.72,51.84c3.97,2.39,8.44,3.59,12.91,3.59
	c4.32,0,8.64-1.12,12.52-3.36c24.67-14.28,40-40.82,40-69.27c0-1.51-0.04-3.03-0.13-4.54c19.47-5.11,37.07-15.18,51.33-29.44
	c28.57-28.57,39.83-70.62,29.39-109.74c-3.03-11.36-11.99-20.15-23.4-22.97c-23.66-6.18-49.2-4.46-71.95,4.83
	c-5.1,2.09-7.55,7.91-5.46,13.01c2.09,5.1,7.91,7.55,13.02,5.46c18.79-7.68,39.89-9.1,59.41-3.98c0.05,0.02,0.11,0.03,0.16,0.04
	c4.36,1.06,7.79,4.41,8.94,8.75c8.61,32.26-0.67,66.93-24.22,90.48c-13.57,13.58-30.83,22.54-49.92,25.92
	c-2.61,0.46-4.93,1.95-6.45,4.12c-1.52,2.18-2.1,4.87-1.63,7.48c0.63,3.48,0.95,7.04,0.95,10.57c0,21.35-11.51,41.27-30.04,51.99
	c-1.91,1.1-3.91,0.69-5.14-0.06c-0.05-0.03-0.1-0.06-0.14-0.09c-16.07-9.4-27.03-26.04-29.34-44.51c-0.57-4.53-4.14-8.1-8.67-8.67
	c-18.47-2.31-35.11-13.27-44.5-29.34c-0.03-0.05-0.06-0.09-0.09-0.14c-0.75-1.24-1.16-3.24-0.06-5.15
	c10.72-18.53,30.64-30.04,51.99-30.04c3.53,0,7.09,0.32,10.57,0.95c2.61,0.48,5.31-0.11,7.48-1.63c2.18-1.52,3.66-3.84,4.12-6.45
	c1.17-6.59,3.04-13.07,5.58-19.26c2.09-5.1-0.36-10.93-5.46-13.02c-5.1-2.08-10.93,0.36-13.02,5.47c-1.88,4.59-3.45,9.31-4.72,14.11
	c-1.52-0.09-3.03-0.13-4.55-0.13c-28.45,0-54.99,15.33-69.26,40c-4.57,7.89-4.48,17.62,0.22,25.43
	C130.53,170.01,149.55,183.73,171.12,188.54z"/>
<path class="st4" d="M431.48,160.5c16.51,0,29.94-13.43,29.94-29.95s-13.43-29.94-29.94-29.94s-29.94,13.43-29.94,29.94
	S414.97,160.5,431.48,160.5z M431.48,120.58c5.5,0,9.98,4.48,9.98,9.98c0,5.5-4.48,9.98-9.98,9.98s-9.98-4.48-9.98-9.98
	C421.5,125.06,425.98,120.58,431.48,120.58z"/>
<path class="st4" d="M83.65,107.1c16.51,0,29.95-13.43,29.95-29.95s-13.43-29.94-29.95-29.94S53.71,60.64,53.71,77.15
	S67.14,107.1,83.65,107.1z M83.65,67.17c5.5,0,9.98,4.48,9.98,9.98c0,5.5-4.48,9.98-9.98,9.98c-5.5,0-9.98-4.48-9.98-9.98
	C73.67,71.65,78.15,67.17,83.65,67.17z"/>
<path class="st4" d="M449.45,421.5c-16.51,0-29.94,13.43-29.94,29.95c0,16.51,13.43,29.94,29.94,29.94
	c16.51,0,29.95-13.43,29.95-29.94C479.39,434.94,465.96,421.5,449.45,421.5z M449.45,461.43c-5.5,0-9.98-4.48-9.98-9.98
	c0-5.5,4.48-9.98,9.98-9.98c5.5,0,9.98,4.48,9.98,9.98C459.43,456.95,454.95,461.43,449.45,461.43z"/>
<path class="st4" d="M50.22,179.95c5.51,0,9.98-4.47,9.98-9.98c0-5.51-4.47-9.98-9.98-9.98s-9.98,4.47-9.98,9.98v0
	C40.23,175.49,44.71,179.95,50.22,179.95z"/>
<path class="st4" d="M331.68,171.97L331.68,171.97c0,5.52,4.47,9.98,9.98,9.98s9.98-4.47,9.98-9.98c0-5.51-4.47-9.98-9.98-9.98
	S331.68,166.45,331.68,171.97z"/>
<path class="st4" d="M437.48,50.2c5.51,0,9.98-4.47,9.98-9.98s-4.47-9.98-9.98-9.98s-9.98,4.47-9.98,9.98v0.01
	C427.5,45.74,431.97,50.2,437.48,50.2z"/>
<path class="st4" d="M211.91,297.73L211.91,297.73c0,5.52,4.47,9.98,9.98,9.98c5.51,0,9.98-4.47,9.98-9.98s-4.47-9.98-9.98-9.98
	C216.38,287.75,211.91,292.21,211.91,297.73z"/>
<path class="st4" d="M70.18,431.47c-5.51,0-9.98,4.47-9.98,9.98v0.01c0,5.51,4.47,9.98,9.98,9.98c5.51,0,9.98-4.47,9.98-9.98
	C80.16,435.94,75.69,431.47,70.18,431.47z"/>
<path class="st4" d="M341.66,443.45c-5.51,0-9.98,4.47-9.98,9.98v0.01c0,5.51,4.47,9.98,9.98,9.98s9.98-4.47,9.98-9.98
	S347.17,443.45,341.66,443.45z"/>
<path class="st4" d="M229.35,51.23c2.7,0,5.39-1.09,7.36-3.24l0.01-0.01c3.72-4.06,3.45-10.37-0.62-14.1
	c-4.06-3.73-10.38-3.45-14.11,0.62c-3.73,4.06-3.45,10.37,0.61,14.1C224.53,50.36,226.94,51.23,229.35,51.23z"/>
<path class="st4" d="M167.77,330.07c-3.9,3.9-3.89,10.22,0,14.12c1.95,1.95,4.51,2.92,7.06,2.92c2.55,0,5.11-0.97,7.06-2.92
	c3.9-3.9,3.9-10.22,0-14.12l0,0C177.99,326.17,171.67,326.17,167.77,330.07z"/>
<path class="st4" d="M453.05,371.04L453.05,371.04c4.08-3.72,4.38-10.02,0.67-14.11c-3.71-4.08-10.02-4.37-14.1-0.67
	c-4.08,3.71-4.38,10.02-0.67,14.1c1.97,2.17,4.67,3.27,7.39,3.27C448.73,373.63,451.14,372.77,453.05,371.04z"/>
</svg>
