<?xml version="1.0" encoding="utf-8"?>
<!-- Generator: Adobe Illustrator 24.0.2, SVG Export Plug-In . SVG Version: 6.00 Build 0)  -->
<svg version="1.0" id="Слой_1" xmlns="http://www.w3.org/2000/svg" xmlns:xlink="http://www.w3.org/1999/xlink" x="0px" y="0px"
	 viewBox="0 0 512 512" style="enable-background:new 0 0 512 512;" xml:space="preserve">
<style type="text/css">
	.st0{fill:#C58965;}
	.st1{fill:#E199BD;}
	.st2{fill:#FFC059;}
	.st3{fill:#D675A7;}
	.st4{fill:#314980;}
</style>
<g>
	<path class="st0" d="M103.95,188.79c-4.05,7.01-6.04,14.65-6.17,22.21h316.45c-0.13-7.56-2.12-15.2-6.17-22.21
		c-8.77-15.18-24.87-23.49-41.25-23.02c0.46-16.38-7.84-32.48-23.02-41.25s-33.28-7.91-47.23,0.69C288.77,110.8,273.53,101,256,101
		s-32.77,9.8-40.56,24.21c-13.95-8.59-32.05-9.45-47.23-0.69s-23.48,24.87-23.02,41.25C128.82,165.3,112.71,173.61,103.95,188.79z"
		/>
	<path class="st1" d="M414.22,211H90c-22,0-36.38,18.3-40,40L30,371h452l-20-120c-3.62-21.7-18-40-40-40H414.22z M256,262.85
		c9.15-9.15,23.99-9.15,33.14,0c9.15,9.15,9.15,23.99,0,33.14l-27.84,27.84c-2.91,2.91-7.69,2.91-10.6,0l-27.84-27.84
		c-9.15-9.15-9.15-23.98,0-33.14S246.85,253.7,256,262.85z"/>
	<path class="st2" d="M289.14,262.85c-9.15-9.15-23.98-9.15-33.14,0c-9.15-9.15-23.98-9.15-33.14,0s-9.15,23.99,0,33.14l27.84,27.84
		c2.91,2.91,7.69,2.91,10.6,0l27.84-27.84C298.29,286.84,298.29,272,289.14,262.85z"/>
	<path class="st3" d="M482,371H30c-11,0-20,9-20,20s9,20,20,20h452c11,0,20-9,20-20S493,371,482,371z"/>
</g>
<path class="st4" d="M490.69,362.29l-18.82-112.93c-4.74-28.47-24.23-47.73-48.69-48.33c-1.19-6.04-3.36-11.88-6.46-17.24
	c-8.68-15.03-23.65-25.01-40.47-27.45c-2.45-16.82-12.43-31.8-27.45-40.47c-15.03-8.68-32.99-9.83-48.78-3.54
	C289.48,98.98,273.35,91,256,91c-17.58,0-33.91,8.2-44.43,21.86c-3.89-0.18-7.71,1.95-9.49,5.69c-2.38,4.98-0.26,10.95,4.72,13.33
	c1.17,0.55,2.31,1.18,3.39,1.85c2.34,1.44,5.18,1.86,7.84,1.14c2.66-0.71,4.9-2.49,6.21-4.91C230.55,118.27,242.73,111,256,111
	s25.45,7.27,31.76,18.96c1.31,2.42,3.55,4.2,6.21,4.91c2.65,0.71,5.49,0.3,7.83-1.14c11.32-6.97,25.49-7.18,36.98-0.54
	c11.5,6.64,18.4,19.02,18.02,32.3c-0.08,2.75,0.98,5.41,2.92,7.36c1.95,1.95,4.64,3,7.36,2.93c13.3-0.4,25.66,6.53,32.3,18.02
	c1.32,2.29,2.36,4.71,3.15,7.21H109.45c0.79-2.5,1.83-4.93,3.15-7.21c6.64-11.5,19-18.43,32.3-18.02c2.77,0.07,5.41-0.98,7.36-2.93
	s3-4.61,2.92-7.36c-0.04-1.27,0-2.57,0.1-3.86c0.43-5.51-3.68-10.32-9.18-10.75c-4.14-0.33-7.88,1.91-9.67,5.38
	c-17.09,2.28-32.36,12.32-41.15,27.55c-3.09,5.37-5.27,11.21-6.46,17.24c-24.46,0.6-43.95,19.86-48.69,48.32L21.31,362.29
	C9,366.02,0,377.48,0,391c0,16.54,13.46,30,30,30h452c16.54,0,30-13.46,30-30C512,377.48,503,366.02,490.69,362.29z M59.86,252.64
	C62.3,238.05,71.65,221,90,221h332c18.35,0,27.7,17.05,30.14,31.64L470.2,361H41.8L59.86,252.64z M482,401H30c-5.52,0-10-4.48-10-10
	s4.48-10,10-10h451.96h0.03h0.02c5.51,0.01,9.99,4.49,9.99,10C492,396.52,487.52,401,482,401z"/>
<path class="st4" d="M243.63,330.89c3.3,3.3,7.69,5.12,12.37,5.12s9.07-1.82,12.38-5.12l27.84-27.84
	c13.03-13.04,13.03-34.24,0-47.28c-10.88-10.88-27.45-12.68-40.21-5.4c-12.76-7.28-29.33-5.47-40.21,5.4
	c-13.04,13.04-13.04,34.24,0,47.28L243.63,330.89z M229.93,269.92c2.62-2.62,6.06-3.93,9.5-3.93c3.44,0,6.88,1.31,9.5,3.93
	c3.91,3.91,10.24,3.91,14.14,0c5.24-5.23,13.76-5.24,19,0s5.24,13.76,0,19L256,314.98l-26.07-26.07
	C224.7,283.68,224.7,275.16,229.93,269.92z"/>
<path class="st4" d="M199.54,174.25c5.52,0,10-4.48,10-10s-4.48-10-10-10s-10,4.48-10,10v0.01
	C189.54,169.78,194.02,174.25,199.54,174.25z"/>
<path class="st4" d="M235.29,179.75L235.29,179.75c0,5.53,4.48,10,10,10s10-4.48,10-10s-4.48-10-10-10S235.29,174.23,235.29,179.75z
	"/>
<path class="st4" d="M261.29,141.74c0-5.52-4.48-10-10-10s-10,4.48-10,10v0.01c0,5.52,4.48,10,10,10S261.29,147.27,261.29,141.74z"
	/>
<path class="st4" d="M168.22,134.52c1.79,0,3.6-0.48,5.23-1.48c4.7-2.89,6.17-9.05,3.27-13.76s-9.05-6.17-13.75-3.27l-0.01,0
	c-4.7,2.89-6.17,9.05-3.27,13.75C161.58,132.84,164.86,134.52,168.22,134.52z"/>
<path class="st4" d="M372,341H432c5.52,0,10-4.48,10-10c0-5.52-4.48-10-10-10H372c-5.52,0-10,4.48-10,10
	C362,336.52,366.48,341,372,341z"/>
<path class="st4" d="M332.01,341c5.52,0,10-4.48,10-10c0-5.52-4.48-10-10-10H332c-5.52,0-9.99,4.48-9.99,10
	C322,336.52,326.48,341,332.01,341z"/>
</svg>
