<?xml version="1.0" encoding="utf-8"?>
<!-- Generator: Adobe Illustrator 24.0.2, SVG Export Plug-In . SVG Version: 6.00 Build 0)  -->
<svg version="1.0" id="Слой_1" xmlns="http://www.w3.org/2000/svg" xmlns:xlink="http://www.w3.org/1999/xlink" x="0px" y="0px"
	 viewBox="0 0 512 512" style="enable-background:new 0 0 512 512;" xml:space="preserve">
<style type="text/css">
	.st0{fill:#FFD89E;}
	.st1{fill:#FFC059;}
	.st2{fill:#314980;}
</style>
<g>
	<path class="st0" d="M56,50c-11.05,0-20,8.95-20,20c0,60.75,24.63,115.75,64.44,155.56c14.01,14.01,29.91,26.14,47.27,35.98
		C140.21,245.9,136,228.42,136,210v-5.83c-2.49-2.23-4.92-4.52-7.28-6.89C100.58,169.14,81.71,131.72,77.1,90H136V50H56z"/>
	<path class="st1" d="M136,10h240v40H136V10z"/>
	<path class="st0" d="M376,50H136v160c0,18.42,4.21,35.9,11.7,51.54c1.39,2.89,2.88,5.71,4.48,8.46h207.63
		c1.6-2.75,3.1-5.57,4.48-8.46C371.79,245.9,376,228.42,376,210V50z"/>
	<path class="st0" d="M376,90h58.89c-4.61,41.72-23.47,79.14-51.62,107.28c-2.36,2.36-4.79,4.66-7.28,6.88V210
		c0,18.42-4.21,35.9-11.71,51.54c17.36-9.84,33.26-21.96,47.27-35.98C451.38,185.75,476,130.75,476,70c0-11.05-8.96-20-20-20h-80V90
		z"/>
	<path class="st1" d="M359.81,270H152.19c12.47,21.44,31.39,38.71,54.05,49.12C209.81,313.64,216,310,223,310h66
		c7,0,13.18,3.64,16.76,9.13C328.42,308.71,347.34,291.44,359.81,270z"/>
	<path class="st0" d="M289,310h-66c-7,0-13.19,3.64-16.76,9.13C204.19,322.26,203,326,203,330c0,11,9,20,20,20h66c11,0,20-9,20-20
		c0-4-1.19-7.74-3.24-10.88C302.18,313.64,296,310,289,310z"/>
	<path class="st1" d="M233,350h46v72h-46V350z"/>
	<path class="st0" d="M279,422h-56c-11,0-20,9-20,20v20h106v-20c0-11-9-20-20-20H279z"/>
	<path class="st1" d="M309,462H166c-11,0-20,9-20,20v20h220v-20c0-11-9-20-20-20H309z"/>
	<path class="st1" d="M256,148.13c32.79,0,59.38,26.59,59.38,59.38s-26.58,24.15-59.38,24.15s-59.38,8.64-59.38-24.15
		S223.21,148.13,256,148.13z"/>
	<path class="st1" d="M256,124.86c10.11,0,18.36-9.08,18.36-20.21S266.11,84.43,256,84.43c-10.12,0-18.37,9.08-18.37,20.21
		S245.88,124.86,256,124.86z"/>
	<path class="st1" d="M205.23,117.52c-5.58-9.67-17.23-13.39-26.01-8.32c-8.78,5.07-11.38,17.02-5.8,26.69s17.23,13.4,26.01,8.32
		C208.22,139.14,210.82,127.19,205.23,117.52z"/>
	<path class="st1" d="M332.77,109.21c-8.79-5.07-20.43-1.35-26.01,8.32c-5.58,9.67-2.99,21.62,5.8,26.69s20.43,1.34,26.01-8.32
		S341.55,114.28,332.77,109.21z"/>
</g>
<path class="st2" d="M196,20c5.52,0,10-4.48,10-10s-4.48-10-10-10H196c-5.52,0-10,4.48-10,10S190.48,20,196,20z"/>
<path class="st2" d="M304,260L304,260c-5.53,0-10,4.48-10,10c0,5.52,4.48,10,10,10c5.52,0,10-4.48,10-10
	C314,264.48,309.52,260,304,260z"/>
<path class="st2" d="M486,70c0-16.54-13.46-30-30-30h-70V10c0-5.52-4.48-10-10-10H236c-5.52,0-10,4.48-10,10s4.48,10,10,10h130v20
	H146V20h10c5.52,0,10-4.48,10-10s-4.48-10-10-10h-20c-5.52,0-10,4.48-10,10v30H56c-16.54,0-30,13.46-30,30
	c0,61.43,23.93,119.19,67.37,162.63c12.16,12.17,25.66,22.9,40.18,32.05c-0.97,1.54-1.54,3.36-1.54,5.32c0,5.52,4.48,10,10,10h4.64
	c11.59,18.06,27.63,33.3,46.98,43.95c-0.4,1.95-0.61,3.98-0.61,6.05c0,16.54,13.46,30,30,30v52c-16.54,0-30,13.46-30,30v10h-27
	c-16.54,0-30,13.46-30,30v20c0,5.52,4.48,10,10,10h220c5.52,0,10-4.48,10-10v-20c0-16.54-13.46-30-30-30h-27v-10
	c0-16.54-13.46-30-30-30v-52c16.54,0,30-13.46,30-30c0-2.07-0.21-4.09-0.61-6.05c19.34-10.65,35.38-25.89,46.98-43.95H370
	c5.52,0,10-4.48,10-10c0-1.96-0.57-3.78-1.54-5.32c14.52-9.15,28.01-19.88,40.18-32.05C462.07,189.19,486,131.43,486,70z M46,70
	c0-5.51,4.48-10,10-10h70v20H77.1c-2.84,0-5.55,1.21-7.45,3.33c-1.9,2.12-2.8,4.95-2.49,7.77c4.71,42.61,24.06,82.82,54.48,113.25
	c1.41,1.41,2.87,2.81,4.35,4.2V210c0,9.25,1.01,18.36,2.92,27.2c-7.54-5.73-14.69-11.98-21.41-18.71C67.84,178.83,46,126.09,46,70z
	 M126,179.53c-19.17-22.77-32.12-50.31-37.35-79.53H126V179.53z M356,482v10H156v-10c0-5.52,4.48-10,10-10h180
	C351.51,472,356,476.48,356,482z M299,442v10h-86v-10c0-5.52,4.48-10,10-10h66C294.51,432,299,436.48,299,442z M269,412h-26v-52h26
	V412z M289,340h-66c-5.52,0-10-4.49-10-10c0-1.96,0.57-3.78,1.55-5.33c0.05-0.08,0.11-0.18,0.16-0.26c1.8-2.66,4.84-4.41,8.29-4.41
	h66c3.44,0,6.48,1.75,8.29,4.41c0.05,0.09,0.11,0.18,0.16,0.27c0.98,1.54,1.55,3.36,1.55,5.32C299,335.51,294.51,340,289,340z
	 M308.02,306.81c-5.18-4.25-11.8-6.81-19.02-6.81h-66c-7.21,0-13.84,2.56-19.02,6.81c-12.67-6.85-23.68-16.02-32.62-26.81H264
	c5.52,0,10-4.48,10-10c0-5.52-4.48-10-10-10H158.16c-7.83-15.23-12.16-32.31-12.16-50V60h220v150c0,17.69-4.33,34.77-12.17,50h-9.84
	c-5.52,0-10,4.48-10,10c0,4.48,2.95,8.28,7.02,9.55C332.01,290.54,320.86,299.86,308.02,306.81z M386,100h37.35
	c-5.23,29.22-18.19,56.76-37.35,79.53V100z M383.07,237.2c1.91-8.84,2.93-17.95,2.93-27.2v-1.45c1.48-1.39,2.94-2.79,4.35-4.2
	c30.43-30.43,49.77-70.64,54.48-113.25c0.31-2.82-0.59-5.65-2.49-7.77c-1.89-2.12-4.6-3.33-7.45-3.33H386V60h70
	c5.51,0,10,4.48,10,10c0,56.09-21.84,108.82-61.51,148.49C397.77,225.21,390.61,231.46,383.07,237.2z"/>
<path class="st2" d="M256,138.13c-38.25,0-69.38,31.13-69.38,69.38c0,11.89,3.04,20.57,9.29,26.51c10.33,9.83,25.65,9.07,43.38,8.18
	c5.39-0.27,10.97-0.54,16.71-0.54s11.31,0.28,16.71,0.54c4.95,0.25,9.71,0.48,14.23,0.48c11.67,0,21.71-1.58,29.15-8.67
	c6.25-5.95,9.29-14.62,9.29-26.51C325.38,169.25,294.25,138.13,256,138.13z M302.3,219.53c-4.12,3.92-16.02,3.32-28.61,2.7
	c-5.64-0.28-11.47-0.57-17.7-0.57c-6.23,0-12.06,0.29-17.7,0.57c-12.59,0.63-24.48,1.22-28.6-2.7c-2.54-2.42-3.07-7.88-3.07-12.02
	c0-27.23,22.15-49.38,49.38-49.38s49.38,22.15,49.38,49.38C305.38,211.66,304.84,217.11,302.3,219.53z"/>
<path class="st2" d="M256,134.86c15.64,0,28.36-13.55,28.36-30.21S271.64,74.43,256,74.43s-28.37,13.55-28.37,30.21
	S240.36,134.86,256,134.86z M256,94.43c4.54,0,8.36,4.68,8.36,10.21c0,5.54-3.83,10.21-8.36,10.21s-8.37-4.68-8.37-10.21
	C247.63,99.11,251.46,94.43,256,94.43z"/>
<path class="st2" d="M204.44,152.88c13.55-7.82,17.79-25.92,9.46-40.35c-8.33-14.43-26.13-19.8-39.67-11.98
	c-6.72,3.88-11.36,10.33-13.06,18.16c-1.63,7.48-0.34,15.36,3.6,22.19c5.73,9.93,15.96,15.57,26.19,15.57
	C195.59,156.47,200.22,155.31,204.44,152.88z M182.09,130.89c-1.45-2.52-1.94-5.34-1.38-7.95c0.29-1.3,1.12-3.7,3.52-5.08
	c3.99-2.3,9.54-0.21,12.35,4.66s1.86,10.72-2.14,13.03S184.91,135.77,182.09,130.89z"/>
<path class="st2" d="M347.23,140.89c3.95-6.83,5.23-14.71,3.6-22.19c-1.7-7.83-6.34-14.28-13.06-18.16s-14.62-4.67-22.25-2.23
	c-7.29,2.33-13.47,7.38-17.42,14.21c-8.33,14.43-4.09,32.53,9.46,40.35c4.22,2.43,8.85,3.59,13.48,3.59
	C331.27,156.46,341.49,150.82,347.23,140.89z M329.91,130.89c-2.82,4.88-8.36,6.97-12.35,4.66c-4-2.3-4.95-8.15-2.14-13.03
	c1.45-2.52,3.65-4.35,6.19-5.16c0.63-0.2,1.56-0.42,2.63-0.42c1.09,0,2.32,0.23,3.53,0.92c2.39,1.38,3.23,3.78,3.51,5.08
	C331.85,125.55,331.36,128.38,329.91,130.89z"/>
</svg>
